# xmcd
#
# Track frame offsets:
#	150
#	22838
#	52087
#	76063
#	99901
#	118733
#	140895
#	167593
#	187207
#	212055
#	239317
#
# Disc length: 3662 seconds
# Revision: 0
# Processed by: cddbd v1.5.2PL0 Copyright (c) Steve Scherf et al.
# Submitted via: dBpowerAMP V12.0
#
DISCID=940e4c0b
DTITLE=Mary Gauthier - Live at Blue Rock
DYEAR=2013
DGENRE=Country
TTITLE0=Your Sister Cried
TTITLE1=Last of the Hobo Kings
TTITLE2=Blood Is Blood
TTITLE3=Cigarette MacHine
TTITLE4=Our Lady of the Shooting Stars
TTITLE5=The Rocket
TTITLE6=Karla Faye
TTITLE7=I Drink
TTITLE8=Sugar Cane
TTITLE9=Drag Queens in Limousines
TTITLE10=Wheel Inside the Wheel
EXTD=
EXTT0=
EXTT1=
EXTT2=
EXTT3=
EXTT4=
EXTT5=
EXTT6=
EXTT7=
EXTT8=
EXTT9=
EXTT10=
PLAYORDER=
